Coordinates
version=1
nRows=10
nColumns=40
inDegrees=yes

Units are S.I. units (second, meters, Newtons, ...)
Angles are in degrees.

endheader
time	pelvis_tilt	pelvis_list	pelvis_rotation	pelvis_tx	pelvis_ty	pelvis_tz	hip_flexion_r	hip_adduction_r	hip_rotation_r	knee_angle_r	knee_angle_r_beta	ankle_angle_r	subtalar_angle_r	mtp_angle_r	hip_flexion_l	hip_adduction_l	hip_rotation_l	knee_angle_l	knee_angle_l_beta	ankle_angle_l	subtalar_angle_l	mtp_angle_l	lumbar_extension	lumbar_bending	lumbar_rotation	arm_flex_r	arm_add_r	arm_rot_r	elbow_flex_r	pro_sup_r	wrist_flex_r	wrist_dev_r	arm_flex_l	arm_add_l	arm_rot_l	elbow_flex_l	pro_sup_l	wrist_flex_l	wrist_dev_l
      0.59000000	      5.09795380	     -3.63207629	     -2.81515547	     -0.56043622	      0.89482130	      1.00949337	     -6.82780974	      5.93202187	    -11.74754646	    -18.89628470	     -0.32980238	     13.59169806	      0.43634235	     -4.20804917	     20.99076324	      4.88047325	      7.88299151	    -27.30510523	     -0.47656399	      1.48697293	      4.07397438	    -11.12251987	    -12.40206291	      3.39097585	      5.08921602	     17.86762353	    -11.71024401	     16.20653583	     29.13808810	     89.95437384	      0.00000000	      0.00000000	     -1.56058648	      8.28685085	    -21.33462054	     14.55242163	     89.95437384	      0.00000000	      0.00000000
      0.60000000	      4.82746140	     -3.77034655	     -3.01152687	     -0.55150741	      0.89314528	      1.00956382	     -7.11413569	      5.99948355	    -11.67677860	    -19.07205043	     -0.33287008	     13.93391775	      0.54224533	     -4.47025963	     21.25265750	      5.07800162	      8.43923384	    -24.55406692	     -0.42854931	      0.57037745	      3.01732188	    -10.93085516	    -12.19631821	      3.51513870	      5.19336418	     18.12245683	    -11.71607701	     16.49959404	     29.94447572	     89.95437384	      0.00000000	      0.00000000	     -2.13282885	      8.29118364	    -21.64147393	     14.35340043	     89.95437384	      0.00000000	      0.00000000
      0.61000000	      4.57575772	     -3.94471160	     -3.18770366	     -0.54267524	      0.89149880	      1.00956090	     -7.41147627	      6.09472013	    -11.60648914	    -19.24525463	     -0.33589306	     14.14193737	      0.76987423	     -4.90296293	     21.48649989	      5.35267114	      9.34387308	    -21.93590923	     -0.38285384	     -0.22118057	      1.59715872	    -10.83136102	    -12.05596229	      3.68234873	      5.35591417	     18.35916257	    -11.78044814	     16.80317023	     30.71532743	     89.95437384	      0.00000000	      0.00000000	     -2.65817452	      8.28057558	    -21.91521263	     14.25697320	     89.95437384	      0.00000000	      0.00000000
      0.62000000	      4.20031442	     -4.03897280	     -3.39675659	     -0.53400125	      0.88968751	      1.00955078	     -7.47894808	      6.10766946	    -11.50945625	    -19.58303677	     -0.34178847	     14.45986959	      0.76445933	     -5.18732467	     21.82492143	      5.50393230	     10.14355456	    -19.45536399	     -0.33956016	     -1.07893534	      0.50778888	    -10.68172412	    -11.80040132	      3.76371099	      5.51526207	     18.57959175	    -11.79712985	     17.10890358	     31.35343970	     89.95437384	      0.00000000	      0.00000000	     -3.10364682	      8.21521940	    -21.90241874	     14.03158315	     89.95437384	      0.00000000	      0.00000000
      0.63000000	      3.73207773	     -4.21630514	     -3.56176658	     -0.52503801	      0.88779708	      1.00940634	     -7.51793753	      6.23381842	    -11.36974423	    -19.82321646	     -0.34598040	     14.60689585	      0.82122547	     -5.30633636	     22.25122320	      5.66655773	     10.59565279	    -17.24460717	     -0.30097517	     -1.63194334	     -0.28031314	    -10.58384635	    -11.39147536	      3.97316757	      5.60951462	     18.70067441	    -11.77529517	     17.27337091	     31.94969924	     89.95437384	      0.00000000	      0.00000000	     -3.64305324	      8.15527562	    -21.86515782	     13.93688332	     89.95437384	      0.00000000	      0.00000000
      0.64000000	      3.68484738	     -4.04138742	     -3.92351953	     -0.51578296	      0.88668320	      1.00925384	     -7.98735102	      5.81674187	    -11.46779768	    -20.13203931	     -0.35137037	     15.04196459	      0.95438934	     -5.64126855	     22.01491504	      5.58728970	     12.09503641	    -15.01997925	     -0.26214809	     -2.71772199	     -1.74643783	    -10.53833077	    -11.44028317	      3.73209839	      5.92524852	     18.87772036	    -11.76661432	     17.57012160	     32.31920711	     89.95437384	      0.00000000	      0.00000000	     -3.98251441	      8.06776424	    -21.70412050	     13.67456733	     89.95437384	      0.00000000	      0.00000000
      0.65000000	      3.24685883	     -4.18272686	     -4.09488249	     -0.50645888	      0.88500649	      1.00906514	     -8.08252338	      5.88387984	    -11.28544586	    -20.36805941	     -0.35548970	     14.96618979	      1.14143308	     -5.72632310	     22.33265675	      5.69789360	     12.41875773	    -13.34902843	     -0.23298450	     -2.62852558	     -2.49156558	    -10.55360888	    -11.04235814	      3.90156803	      5.99312952	     18.90891844	    -11.66425039	     17.64376925	     32.71431587	     89.95437384	      0.00000000	      0.00000000	     -4.53018946	      8.03038985	    -21.60547763	     13.66039730	     89.95437384	      0.00000000	      0.00000000
      0.66000000	      2.97419233	     -4.13976292	     -4.38034209	     -0.49699192	      0.88373948	      1.00889172	     -8.29426162	      5.68393757	    -11.07070629	    -20.71135998	     -0.36148142	     14.99867445	      1.26148745	     -5.84088571	     22.30120055	      5.63606277	     12.91380588	    -11.74427879	     -0.20497633	     -2.57923662	     -3.24100804	    -10.59138898	    -10.82175199	      3.83565512	      6.19471512	     18.95130904	    -11.56409047	     17.79092706	     32.91703413	     89.95437384	      0.00000000	      0.00000000	     -4.96362350	      8.01288892	    -21.52726950	     13.58725576	     89.95437384	      0.00000000	      0.00000000
      0.67000000	      2.87702365	     -4.00256954	     -4.72589445	     -0.48727590	      0.88283320	      1.00865544	     -8.67001354	      5.31866183	    -10.81402199	    -21.10624367	     -0.36837344	     15.02810892	      1.40595737	     -5.97776266	     22.07315552	      5.51515166	     13.57640978	    -10.65586556	     -0.18597994	     -2.31160421	     -3.76617834	    -10.61432182	    -10.78540167	      3.65490559	      6.44037052	     18.95602779	    -11.44798813	     17.87785190	     33.05871607	     89.95437384	      0.00000000	      0.00000000	     -5.34545068	      7.94616739	    -21.26226616	     13.51789604	     89.95437384	      0.00000000	      0.00000000
      0.68000000	      2.85039550	     -3.88221851	     -5.09933790	     -0.47720903	      0.88212895	      1.00848178	     -9.20510777	      4.96613851	    -10.54502189	    -21.36914186	     -0.37296188	     14.98342791	      1.54941857	     -6.16389769	     21.90588919	      5.45030903	     14.32279764	    -10.36562734	     -0.18091433	     -1.94435388	     -3.86481049	    -10.54259646	    -10.79185100	      3.47916717	      6.68497936	     18.89793769	    -11.29215504	     17.93363049	     33.14105792	     89.95437384	      0.00000000	      0.00000000	     -5.73951999	      7.85774122	    -20.73265594	     13.46724558	     89.95437384	      0.00000000	      0.00000000
